<svg width="212" height="200" viewBox="0 0 212 200" fill="none" xmlns="http://www.w3.org/2000/svg">
<g clip-path="url(#clip0_4_16)">
<path fill-rule="evenodd" clip-rule="evenodd" d="M211.137 104.442L196.551 101.625L196.34 102.919L195.961 102.845L196.036 98.191L196.415 98.264L196.582 99.726L210.6 102.432L210.812 101.044L211.191 101.117L211.137 104.442ZM203.663 95.239C202.928 95.566 202.041 95.696 201.001 95.628C199.961 95.561 199.032 95.312 198.214 94.884C197.396 94.456 196.738 93.888 196.24 93.18C195.742 92.473 195.443 91.672 195.345 90.778C195.263 90.035 195.389 89.409 195.722 88.9C196.054 88.39 196.543 88 197.189 87.73L190.316 87.282L190.318 89.045L189.933 89.02L189.385 84.033L189.77 84.059L190.108 85.393L204.355 86.321L204.402 85.012L204.787 85.037L205.14 88.247L203.119 88.116C203.846 88.476 204.435 88.936 204.886 89.497C205.336 90.057 205.602 90.709 205.684 91.452C205.782 92.346 205.653 93.119 205.298 93.771C204.943 94.423 204.398 94.912 203.663 95.239ZM205.182 91.232C205.121 90.677 204.902 90.163 204.524 89.689C204.147 89.214 203.668 88.827 203.087 88.526C202.506 88.226 201.894 88.048 201.251 87.994L199.191 87.86C198.537 87.817 197.938 87.906 197.395 88.127C196.852 88.348 196.436 88.677 196.147 89.115C195.857 89.552 195.743 90.054 195.806 90.621C195.998 92.371 197.333 93.327 199.81 93.488L201.735 93.614C204.225 93.776 205.374 92.981 205.182 91.232ZM202.929 79.375L198.774 76.916L194.643 80.896L194.783 82.086L194.399 82.119L193.205 77.639L193.59 77.606L194.075 78.692L197.033 75.845L192.931 73.437L192.885 74.963L192.501 74.996L191.625 71.709L192.01 71.676L192.818 72.865L197.397 75.513L201.264 71.8L201.139 70.665L201.523 70.632L202.717 75.112L202.333 75.145L201.813 74.006L199.137 76.584L202.83 78.783L202.886 77.295L203.27 77.261L204.17 80.64L203.786 80.673L202.929 79.375ZM198.507 67.096C198.023 67.564 197.382 67.895 196.584 68.089L193.878 61.642L192.015 62.064C190.911 62.314 190.114 62.747 189.625 63.364C189.134 63.98 189.073 64.726 189.441 65.602C189.779 66.408 190.323 67.065 191.072 67.573C191.821 68.081 192.614 68.317 193.451 68.281L193.62 68.684C192.623 68.731 191.709 68.484 190.877 67.943C190.046 67.403 189.429 66.653 189.027 65.696C188.664 64.831 188.546 64.001 188.672 63.205C188.798 62.409 189.158 61.72 189.751 61.138C190.345 60.556 191.143 60.151 192.147 59.924C193.151 59.696 194.116 59.698 195.044 59.928C195.972 60.159 196.79 60.569 197.497 61.157C198.204 61.745 198.734 62.459 199.087 63.3C199.396 64.036 199.497 64.736 199.391 65.399C199.285 66.063 198.99 66.628 198.507 67.096ZM198.666 63.376C198.337 62.594 197.787 62.053 197.016 61.755C196.245 61.457 195.359 61.389 194.356 61.552L196.246 66.055C197.337 65.807 198.083 65.466 198.484 65.029C198.885 64.593 198.945 64.042 198.666 63.376ZM184.244 44.34L179.863 38.891L178.189 39.811C177.197 40.357 176.551 40.993 176.25 41.72C175.949 42.448 176.097 43.182 176.692 43.922C177.24 44.604 177.944 45.085 178.804 45.366C179.664 45.648 180.491 45.656 181.285 45.39L181.559 45.73C180.614 46.051 179.667 46.066 178.719 45.776C177.77 45.486 176.971 44.936 176.32 44.127C175.733 43.396 175.39 42.632 175.291 41.832C175.192 41.032 175.348 40.27 175.757 39.546C176.167 38.823 176.823 38.213 177.724 37.718C178.626 37.222 179.555 36.957 180.51 36.922C181.466 36.888 182.365 37.056 183.207 37.426C184.049 37.795 184.756 38.336 185.327 39.046C185.827 39.668 186.118 40.313 186.199 40.98C186.28 41.647 186.153 42.272 185.818 42.855C185.482 43.438 184.957 43.933 184.244 44.34ZM184.943 39.236C184.411 38.575 183.734 38.207 182.91 38.133C182.087 38.059 181.216 38.239 180.297 38.673L183.357 42.479C184.338 41.939 184.96 41.405 185.225 40.875C185.49 40.345 185.396 39.799 184.943 39.236ZM177.802 33.458C177.465 33.439 177.169 33.306 176.915 33.059C176.624 32.777 176.518 32.453 176.598 32.089C176.843 32.08 177.05 32.016 177.217 31.896C177.394 31.768 177.485 31.613 177.49 31.433C177.495 31.252 177.412 31.078 177.239 30.91C177.048 30.725 176.751 30.608 176.348 30.561C175.945 30.513 175.402 30.521 174.72 30.582L168.869 34.804L169.802 35.976L169.49 36.202L166.083 32.891L166.396 32.665L167.507 33.479L174.672 28.309L173.875 27.269L174.188 27.043L176.504 29.295L175.299 30.164C176.768 30.073 177.862 30.376 178.579 31.074C178.925 31.409 179.127 31.778 179.187 32.181C179.247 32.584 179.089 32.921 178.714 33.192C178.443 33.388 178.138 33.476 177.802 33.458ZM167.486 27.452C166.745 28.147 165.911 28.634 164.984 28.913C164.057 29.193 163.138 29.256 162.225 29.102C161.313 28.949 160.492 28.599 159.762 28.052C159.032 27.506 158.525 26.861 158.241 26.118C157.957 25.375 157.929 24.602 158.156 23.799C158.383 22.996 158.867 22.247 159.609 21.552C160.349 20.857 161.181 20.372 162.103 20.097C163.025 19.822 163.942 19.761 164.855 19.915C165.767 20.068 166.589 20.418 167.318 20.965C168.048 21.511 168.555 22.156 168.839 22.899C169.123 23.642 169.154 24.413 168.931 25.211C168.709 26.01 168.227 26.757 167.486 27.452ZM167.009 21.255C166.259 20.693 165.442 20.505 164.56 20.691C163.678 20.877 162.82 21.362 161.985 22.145L160.578 23.465C159.743 24.248 159.262 25.019 159.136 25.779C159.009 26.539 159.321 27.2 160.071 27.762C160.822 28.324 161.64 28.51 162.527 28.319C163.413 28.129 164.274 27.642 165.11 26.859L166.517 25.539C167.351 24.756 167.83 23.987 167.952 23.231C168.073 22.476 167.759 21.817 167.009 21.255ZM153.752 23.213L153.502 23.507L149.488 21.15L149.738 20.856L151.092 21.431L160.349 10.562L159.245 9.69297L159.495 9.39997L162.362 11.083L152.73 22.393L153.752 23.213ZM149.763 15.545C149.184 16.411 148.505 17.092 147.725 17.586C146.945 18.081 146.124 18.367 145.263 18.445C144.401 18.523 143.558 18.381 142.735 18.019C142.051 17.719 141.571 17.297 141.296 16.754C141.021 16.211 140.928 15.593 141.016 14.898L137.193 20.627L138.721 21.506L138.507 21.827L133.914 19.81L134.129 19.489L135.453 19.863L143.378 7.98797L142.268 7.29197L142.482 6.97097L145.439 8.27097L144.314 9.95597C144.99 9.50497 145.683 9.22497 146.394 9.11497C147.104 9.00497 147.801 9.10097 148.486 9.40097C149.309 9.76297 149.914 10.261 150.301 10.894C150.688 11.528 150.84 12.245 150.756 13.045C150.672 13.845 150.341 14.678 149.763 15.545ZM148.044 9.72597C147.534 9.50197 146.979 9.43497 146.379 9.52397C145.78 9.61397 145.205 9.83497 144.654 10.188C144.104 10.541 143.644 10.982 143.276 11.512L142.13 13.229C141.766 13.775 141.543 14.338 141.464 14.918C141.384 15.499 141.461 16.024 141.695 16.493C141.929 16.963 142.307 17.312 142.829 17.542C144.44 18.25 145.936 17.572 147.313 15.507L148.385 13.902C149.769 11.826 149.656 10.434 148.044 9.72597ZM136.631 5.74797L132.425 8.11997L133.812 13.686L134.913 14.159L134.749 14.509L130.272 13.306L130.435 12.957L131.618 13.077L130.628 9.09397L126.494 11.446L127.793 12.247L127.63 12.597L124.345 11.715L124.508 11.365L125.942 11.258L130.523 8.61297L129.236 3.40797L128.19 2.94997L128.353 2.59997L132.831 3.80297L132.667 4.15197L131.422 4.03397L132.319 7.63897L136.068 5.53797L134.806 4.74597L134.969 4.39597L138.346 5.30297L138.183 5.65297L136.631 5.74797ZM121.669 198.148C120.928 198.691 120.106 199.032 119.205 199.171C118.416 199.293 117.713 199.221 117.095 198.958C116.477 198.694 115.999 198.271 115.662 197.689C115.326 197.106 115.16 196.404 115.165 195.583L122.076 194.519L122.117 192.61C122.142 191.478 121.915 190.6 121.435 189.975C120.956 189.35 120.247 189.11 119.308 189.255C118.444 189.388 117.675 189.756 117.001 190.36C116.326 190.964 115.905 191.676 115.738 192.496L115.306 192.563C115.502 191.584 115.963 190.757 116.689 190.081C117.415 189.406 118.291 188.989 119.317 188.831C120.244 188.688 121.078 188.774 121.819 189.089C122.561 189.404 123.143 189.92 123.564 190.637C123.985 191.354 124.184 192.227 124.162 193.256C124.14 194.284 123.904 195.221 123.455 196.066C123.006 196.91 122.411 197.604 121.669 198.148ZM117.22 195.748C117.196 196.866 117.347 197.673 117.673 198.167C117.999 198.662 118.519 198.854 119.233 198.744C120.072 198.615 120.729 198.212 121.206 197.537C121.682 196.861 121.962 196.017 122.047 195.004L117.22 195.748ZM116.746 4.73397L116.181 6.55897C115.847 7.63997 115.824 8.54697 116.113 9.27897C116.402 10.011 117.018 10.437 117.96 10.556C118.827 10.666 119.668 10.523 120.482 10.128C121.297 9.73297 121.897 9.16397 122.284 8.42097L122.718 8.47597C122.26 9.36297 121.589 10.031 120.706 10.481C119.822 10.932 118.865 11.092 117.835 10.961C116.905 10.844 116.127 10.532 115.5 10.025C114.873 9.51797 114.456 8.86197 114.248 8.05697C114.04 7.25197 114.089 6.35797 114.393 5.37497C114.697 4.39197 115.181 3.55697 115.845 2.86797C116.508 2.17897 117.272 1.67597 118.134 1.35697C118.997 1.03797 119.88 0.935973 120.785 1.04997C121.577 1.14997 122.234 1.41197 122.755 1.83497C123.277 2.25897 123.62 2.79697 123.784 3.44897C123.947 4.10197 123.914 4.82197 123.683 5.60997L116.746 4.73397ZM121.982 2.43697C121.804 1.87197 121.357 1.54397 120.641 1.45297C119.799 1.34697 119.056 1.55297 118.412 2.07197C117.769 2.59097 117.267 3.32497 116.908 4.27597L121.752 4.88697C122.083 3.81897 122.159 3.00197 121.982 2.43697ZM96.308 197.147C95.646 197.837 94.884 198.342 94.021 198.662C93.159 198.982 92.276 199.086 91.371 198.973C90.579 198.874 89.922 198.613 89.399 198.191C88.877 197.768 88.533 197.231 88.369 196.578C88.204 195.926 88.237 195.206 88.466 194.417L95.404 195.283L95.966 193.457C96.299 192.375 96.32 191.469 96.03 190.737C95.74 190.005 95.124 189.58 94.181 189.463C93.314 189.354 92.473 189.499 91.659 189.895C90.845 190.291 90.246 190.861 89.86 191.604L89.427 191.55C89.883 190.662 90.552 189.993 91.435 189.542C92.318 189.09 93.275 188.928 94.306 189.057C95.236 189.173 96.015 189.484 96.642 189.99C97.269 190.495 97.688 191.151 97.897 191.956C98.106 192.76 98.059 193.654 97.756 194.638C97.453 195.621 96.971 196.458 96.308 197.147ZM90.398 195.137C90.069 196.207 89.994 197.023 90.172 197.588C90.351 198.153 90.798 198.48 91.515 198.57C92.357 198.675 93.099 198.467 93.742 197.948C94.385 197.427 94.885 196.692 95.243 195.741L90.398 195.137ZM89.737 7.41597C89.715 8.54697 89.943 9.42497 90.423 10.049C90.903 10.673 91.613 10.912 92.552 10.766C93.415 10.631 94.184 10.262 94.857 9.65697C95.531 9.05197 95.951 8.33997 96.117 7.51897L96.549 7.45197C96.354 8.43097 95.895 9.25897 95.17 9.93497C94.445 10.612 93.569 11.03 92.543 11.19C91.617 11.334 90.783 11.25 90.041 10.935C89.298 10.622 88.716 10.106 88.294 9.38997C87.872 8.67397 87.671 7.80197 87.692 6.77197C87.712 5.74397 87.946 4.80697 88.394 3.96197C88.841 3.11597 89.436 2.42197 90.176 1.87697C90.917 1.33197 91.738 0.989973 92.64 0.848973C93.428 0.726973 94.131 0.796973 94.75 1.05897C95.368 1.32197 95.847 1.74397 96.184 2.32597C96.522 2.90797 96.689 3.60997 96.685 4.43097L89.776 5.50597L89.737 7.41597ZM94.629 4.26997C94.652 3.15097 94.5 2.34497 94.173 1.85097C93.846 1.35697 93.326 1.16597 92.612 1.27697C91.774 1.40697 91.116 1.81097 90.641 2.48697C90.166 3.16397 89.887 4.00797 89.804 5.02097L94.629 4.26997ZM87.628 188.663L86.195 188.772L81.619 191.425L82.913 196.628L83.96 197.084L83.797 197.434L79.318 196.239L79.481 195.889L80.727 196.005L79.823 192.401L76.078 194.509L77.341 195.298L77.178 195.648L73.801 194.747L73.963 194.397L75.515 194.3L79.716 191.92L78.322 186.357L77.22 185.886L77.382 185.536L81.862 186.731L81.699 187.081L80.516 186.962L81.512 190.944L85.642 188.586L84.342 187.786L84.505 187.437L87.791 188.313L87.628 188.663ZM83.224 5.15597C82.834 5.26697 82.5 5.19797 82.224 4.94697C82.339 4.72997 82.386 4.51897 82.365 4.31397C82.342 4.09697 82.254 3.94097 82.1 3.84697C81.946 3.75197 81.753 3.73797 81.522 3.80397C81.266 3.87697 81.017 4.07697 80.775 4.40297C80.533 4.72897 80.269 5.20297 79.982 5.82497L80.73 13.001L82.211 12.776L82.251 13.16L77.684 14.465L77.644 14.081L78.903 13.523L77.988 4.73497L76.689 4.90797L76.649 4.52397L79.755 3.63697L79.909 5.11497C80.561 3.79497 81.369 2.99797 82.331 2.72297C82.794 2.59097 83.215 2.59897 83.594 2.74797C83.973 2.89597 84.186 3.20097 84.235 3.66097C84.269 3.99397 84.194 4.30197 84.011 4.58497C83.827 4.86797 83.564 5.05797 83.224 5.15597ZM72.486 15.926C71.9 16.642 71.189 17.181 70.352 17.543C69.515 17.905 68.703 18.025 67.917 17.902C67.132 17.78 66.447 17.421 65.863 16.824C65.278 16.229 64.869 15.436 64.633 14.448C64.398 13.459 64.39 12.497 64.609 11.56C64.829 10.623 65.232 9.79697 65.818 9.08097C66.404 8.36497 67.116 7.82597 67.953 7.46397C68.79 7.10197 69.601 6.98297 70.387 7.10497C71.173 7.22797 71.857 7.58397 72.44 8.17397C73.022 8.76297 73.432 9.55197 73.667 10.541C73.902 11.53 73.91 12.495 73.693 13.438C73.475 14.381 73.073 15.211 72.486 15.926ZM71.972 12.309L71.525 10.432C71.26 9.31897 70.83 8.52097 70.235 8.03997C69.639 7.55997 68.911 7.50497 68.051 7.87697C67.191 8.24897 66.622 8.86497 66.346 9.72197C66.069 10.58 66.063 11.566 66.328 12.68L66.775 14.556C67.04 15.67 67.471 16.47 68.068 16.958C68.664 17.445 69.393 17.502 70.253 17.13C71.114 16.758 71.681 16.14 71.956 15.276C72.231 14.412 72.237 13.423 71.972 12.309ZM69.405 182.044C70.09 182.343 70.571 182.764 70.847 183.306C71.123 183.849 71.217 184.467 71.13 185.162L74.943 179.426L73.413 178.55L73.627 178.229L78.223 180.238L78.009 180.559L76.684 180.187L68.779 192.076L69.891 192.77L69.678 193.091L66.718 191.797L67.84 190.11C67.165 190.562 66.473 190.843 65.762 190.954C65.052 191.065 64.354 190.971 63.669 190.671C62.845 190.311 62.239 189.814 61.851 189.182C61.463 188.549 61.31 187.832 61.393 187.032C61.476 186.232 61.805 185.398 62.382 184.53C62.959 183.663 63.637 182.981 64.416 182.485C65.195 181.989 66.015 181.702 66.877 181.623C67.739 181.543 68.581 181.683 69.405 182.044ZM64.831 184.564L63.763 186.171C62.381 188.249 62.497 189.641 64.11 190.346C64.621 190.569 65.176 190.635 65.776 190.545C66.375 190.455 66.95 190.232 67.5 189.878C68.05 189.524 68.508 189.082 68.876 188.552L70.019 186.833C70.382 186.286 70.603 185.723 70.682 185.142C70.761 184.562 70.683 184.036 70.448 183.568C70.213 183.098 69.835 182.75 69.312 182.521C67.699 181.816 66.205 182.497 64.831 184.564ZM59.132 22.673L60.303 21.782L55.459 8.35297L54.157 8.87997L54.026 8.51697L56.91 6.86297L61.951 20.837L63.17 20.357L63.301 20.72L59.263 23.036L59.132 22.673ZM55.288 22.803C55.33 23.725 55.171 24.58 54.81 25.366C54.45 26.153 53.909 26.814 53.186 27.349C52.585 27.794 51.981 28.001 51.373 27.97C50.765 27.939 50.182 27.713 49.623 27.292L52.698 33.455L54.219 32.565L54.392 32.91L50.36 35.895L50.188 35.549L51.171 34.585L44.798 21.81L43.643 22.428L43.47 22.083L46.066 20.162L46.971 21.974C46.915 21.164 47.016 20.424 47.274 19.752C47.531 19.081 47.96 18.523 48.561 18.078C49.284 17.543 50.016 17.265 50.758 17.244C51.501 17.222 52.198 17.447 52.851 17.917C53.504 18.387 54.062 19.088 54.528 20.021C54.993 20.953 55.246 21.88 55.288 22.803ZM53.278 22.127L52.417 20.401C51.303 18.168 50.039 17.575 48.624 18.623C48.176 18.955 47.842 19.403 47.622 19.968C47.401 20.532 47.308 21.142 47.341 21.795C47.374 22.448 47.529 23.066 47.806 23.649L48.728 25.496C49.02 26.083 49.399 26.556 49.863 26.913C50.327 27.271 50.821 27.465 51.345 27.495C51.869 27.525 52.36 27.37 52.818 27.031C54.233 25.983 54.386 24.349 53.278 22.127ZM39.479 31.365L44.995 32.937L45.954 32.218L46.176 32.533L42.902 35.816L42.681 35.501L43.375 34.535L39.427 33.409L39.407 38.165L40.749 37.438L40.97 37.754L38.569 40.163L38.347 39.847L38.969 38.551L38.958 33.261L33.804 31.783L32.886 32.462L32.664 32.146L35.937 28.863L36.159 29.179L35.436 30.2L39.009 31.218L39.054 26.92L37.74 27.62L37.518 27.305L39.986 24.829L40.208 25.145L39.517 26.537L39.479 31.365ZM28.743 43.237L30.041 44.638C30.811 45.468 31.585 45.941 32.363 46.057C33.142 46.172 33.819 45.852 34.393 45.094C34.921 44.398 35.217 43.599 35.282 42.696C35.347 41.793 35.154 40.989 34.704 40.282L34.968 39.934C35.508 40.774 35.752 41.689 35.7 42.679C35.649 43.669 35.309 44.578 34.681 45.406C34.115 46.153 33.456 46.671 32.703 46.96C31.951 47.25 31.175 47.284 30.373 47.062C29.572 46.839 28.822 46.351 28.123 45.596C27.423 44.841 26.941 44.005 26.676 43.085C26.411 42.167 26.356 41.254 26.511 40.347C26.666 39.441 27.019 38.625 27.57 37.898C28.052 37.262 28.607 36.824 29.235 36.583C29.862 36.343 30.499 36.315 31.146 36.499C31.793 36.684 32.401 37.073 32.968 37.666L28.743 43.237ZM29.369 37.554C28.791 37.426 28.283 37.649 27.847 38.224C27.334 38.9 27.142 39.647 27.269 40.464C27.397 41.281 27.783 42.082 28.427 42.868L31.377 38.978C30.616 38.157 29.947 37.683 29.369 37.554ZM27.839 155.778L32.229 161.22L33.901 160.297C34.893 159.75 35.538 159.113 35.838 158.385C36.137 157.656 35.989 156.923 35.392 156.183C34.844 155.503 34.139 155.023 33.278 154.743C32.417 154.462 31.59 154.456 30.797 154.723L30.522 154.383C31.467 154.061 32.414 154.044 33.363 154.333C34.312 154.621 35.112 155.17 35.764 155.978C36.353 156.708 36.697 157.472 36.797 158.272C36.896 159.072 36.742 159.834 36.333 160.558C35.925 161.282 35.27 161.893 34.369 162.39C33.468 162.887 32.54 163.153 31.584 163.189C30.629 163.225 29.73 163.059 28.887 162.69C28.045 162.322 27.337 161.782 26.764 161.073C26.263 160.451 25.972 159.807 25.89 159.14C25.807 158.473 25.933 157.848 26.268 157.264C26.603 156.681 27.127 156.185 27.839 155.778ZM27.148 160.882C27.681 161.543 28.359 161.909 29.183 161.982C30.006 162.055 30.877 161.874 31.795 161.438L28.729 157.637C27.75 158.178 27.128 158.713 26.864 159.244C26.6 159.774 26.695 160.32 27.148 160.882ZM22.308 138.989C21.715 139.572 20.917 139.978 19.914 140.207C18.911 140.436 17.945 140.436 17.017 140.207C16.089 139.977 15.271 139.569 14.562 138.982C13.854 138.395 13.323 137.682 12.969 136.841C12.659 136.106 12.557 135.406 12.661 134.743C12.767 134.079 13.061 133.513 13.544 133.044C14.026 132.576 14.667 132.244 15.464 132.049L18.181 138.492L20.043 138.067C21.146 137.815 21.943 137.38 22.432 136.763C22.921 136.146 22.98 135.4 22.611 134.525C22.272 133.719 21.727 133.063 20.977 132.556C20.227 132.049 19.434 131.814 18.598 131.852L18.428 131.449C19.425 131.401 20.339 131.646 21.172 132.186C22.004 132.725 22.622 133.473 23.025 134.43C23.389 135.294 23.509 136.124 23.384 136.92C23.259 137.716 22.901 138.406 22.308 138.989ZM15.806 134.082C14.715 134.332 13.97 134.674 13.569 135.111C13.17 135.548 13.11 136.099 13.39 136.764C13.72 137.546 14.271 138.086 15.042 138.383C15.813 138.68 16.7 138.747 17.703 138.582L15.806 134.082ZM20.894 69.246C20.251 69.732 19.514 69.979 18.682 69.987C17.851 69.995 16.995 69.733 16.114 69.201C15.233 68.669 14.539 67.999 14.03 67.189C13.521 66.379 13.216 65.517 13.114 64.603C13.012 63.689 13.126 62.807 13.454 61.956C13.742 61.212 14.154 60.637 14.691 60.232C15.227 59.828 15.832 59.625 16.505 59.623C17.177 59.621 17.869 59.827 18.578 60.241L16.058 66.763L17.693 67.75C18.662 68.335 19.537 68.576 20.317 68.471C21.098 68.367 21.659 67.872 22.001 66.986C22.316 66.17 22.38 65.32 22.192 64.434C22.005 63.549 21.598 62.829 20.969 62.275L21.127 61.867C21.878 62.525 22.365 63.337 22.589 64.303C22.814 65.269 22.739 66.236 22.365 67.205C22.027 68.079 21.537 68.76 20.894 69.246ZM17.412 61.941C16.454 61.363 15.679 61.092 15.088 61.128C14.497 61.165 14.071 61.52 13.811 62.193C13.505 62.985 13.526 63.756 13.875 64.505C14.224 65.255 14.816 65.918 15.652 66.496L17.412 61.941ZM11.809 73.004C11.679 72.795 11.52 72.649 11.331 72.565C11.132 72.476 10.953 72.475 10.794 72.561C10.635 72.648 10.527 72.808 10.469 73.041C10.404 73.299 10.453 73.615 10.614 73.987C10.776 74.359 11.054 74.825 11.45 75.384L18.04 78.322L18.585 76.926L18.937 77.083L17.786 81.691L17.434 81.534L17.58 80.165L9.50898 76.567L9.01098 77.779L8.65798 77.622L9.44098 74.488L10.798 75.093C9.98098 73.869 9.69398 72.771 9.93598 71.8C10.053 71.333 10.27 70.972 10.589 70.718C10.907 70.464 11.277 70.431 11.7 70.619C12.006 70.756 12.235 70.974 12.388 71.275C12.542 71.575 12.575 71.898 12.489 72.242C12.391 72.635 12.165 72.889 11.809 73.004ZM12.375 83.244C13.349 83.534 14.189 84.01 14.897 84.669C15.605 85.33 16.123 86.092 16.45 86.958C16.777 87.823 16.889 88.708 16.784 89.615C16.679 90.521 16.378 91.283 15.879 91.903C15.38 92.522 14.727 92.936 13.918 93.144C13.11 93.353 12.219 93.312 11.245 93.021C10.272 92.731 9.43398 92.257 8.73198 91.599C8.02998 90.941 7.51598 90.179 7.18898 89.313C6.86098 88.448 6.74998 87.563 6.85498 86.656C6.95898 85.75 7.26098 84.988 7.75998 84.368C8.25898 83.749 8.90898 83.334 9.71098 83.125C10.513 82.914 11.401 82.954 12.375 83.244ZM8.49398 84.968C7.77998 85.243 7.36898 85.847 7.26198 86.778C7.15398 87.709 7.40298 88.509 8.00798 89.177C8.61298 89.845 9.46398 90.343 10.561 90.67L12.41 91.22C13.507 91.547 14.415 91.574 15.135 91.301C15.856 91.027 16.27 90.425 16.377 89.493C16.485 88.563 16.233 87.762 15.622 87.092C15.011 86.422 14.157 85.923 13.06 85.596L11.21 85.045C10.114 84.718 9.20798 84.693 8.49398 84.968ZM15.659 97.227L16.038 97.3L15.963 101.955L15.584 101.881L15.418 100.42L1.39998 97.713L1.18698 99.102L0.807983 99.028L0.861983 95.704L15.448 98.52L15.659 97.227ZM8.34398 104.915C9.07898 104.587 9.96598 104.456 11.006 104.522C12.046 104.588 12.975 104.835 13.793 105.262C14.612 105.689 15.271 106.256 15.771 106.962C16.27 107.669 16.57 108.469 16.669 109.363C16.752 110.106 16.628 110.732 16.296 111.242C15.964 111.752 15.476 112.143 14.83 112.414L21.704 112.851L21.699 111.089L22.084 111.113L22.64 116.098L22.255 116.074L21.915 114.74L7.66598 113.834L7.62098 115.144L7.23598 115.119L6.87798 111.909L8.89998 112.038C8.17198 111.679 7.58198 111.219 7.13098 110.66C6.67998 110.1 6.41298 109.449 6.32998 108.706C6.22998 107.812 6.35698 107.039 6.71198 106.386C7.06598 105.734 7.60998 105.244 8.34398 104.915ZM6.83198 108.925C6.89398 109.479 7.11398 109.993 7.49198 110.467C7.86998 110.941 8.34898 111.328 8.93098 111.627C9.51198 111.927 10.124 112.103 10.768 112.156L12.828 112.287C13.482 112.329 14.081 112.239 14.623 112.017C15.166 111.795 15.582 111.466 15.87 111.028C16.159 110.59 16.272 110.088 16.209 109.521C16.014 107.771 14.678 106.818 12.2 106.66L10.275 106.538C7.78498 106.38 6.63698 107.176 6.83198 108.925ZM9.10298 120.774L13.262 123.227L17.386 119.241L17.245 118.051L17.629 118.017L18.829 122.495L18.445 122.529L17.958 121.444L15.004 124.296L19.11 126.697L19.154 125.171L19.538 125.138L20.419 128.423L20.034 128.456L19.224 127.269L14.641 124.628L10.779 128.347L10.906 129.482L10.522 129.515L9.32198 125.038L9.70598 125.004L10.227 126.142L12.899 123.56L9.20298 121.367L9.14898 122.855L8.76498 122.889L7.85998 119.512L8.24398 119.478L9.10298 120.774ZM34.298 166.65C34.635 166.667 34.931 166.8 35.186 167.047C35.477 167.329 35.583 167.652 35.504 168.017C35.258 168.026 35.052 168.09 34.885 168.211C34.708 168.339 34.617 168.494 34.612 168.674C34.608 168.855 34.692 169.029 34.864 169.196C35.055 169.381 35.353 169.497 35.756 169.544C36.159 169.591 36.702 169.583 37.384 169.521L43.229 165.29L42.293 164.119L42.606 163.893L46.017 167.199L45.704 167.425L44.593 166.613L37.435 171.793L38.234 172.832L37.921 173.058L35.602 170.811L36.805 169.939C35.336 170.033 34.242 169.731 33.524 169.035C33.178 168.7 32.975 168.331 32.914 167.928C32.854 167.526 33.011 167.188 33.386 166.917C33.657 166.721 33.961 166.632 34.298 166.65ZM44.637 172.652C45.377 171.956 46.21 171.467 47.136 171.186C48.062 170.906 48.982 170.841 49.894 170.993C50.807 171.145 51.629 171.493 52.36 172.039C53.091 172.584 53.599 173.228 53.884 173.97C54.169 174.713 54.199 175.486 53.973 176.289C53.747 177.093 53.264 177.843 52.524 178.539C51.784 179.235 50.953 179.722 50.032 179.998C49.11 180.274 48.193 180.336 47.28 180.185C46.368 180.033 45.546 179.685 44.815 179.139C44.084 178.594 43.576 177.95 43.291 177.207C43.006 176.465 42.974 175.694 43.195 174.895C43.416 174.096 43.897 173.348 44.637 172.652ZM45.124 178.848C45.875 179.409 46.692 179.595 47.573 179.408C48.455 179.22 49.313 178.734 50.146 177.95L51.551 176.628C52.385 175.843 52.865 175.071 52.99 174.311C53.115 173.551 52.802 172.89 52.051 172.33C51.3 171.769 50.481 171.584 49.594 171.776C48.708 171.969 47.848 172.456 47.014 173.241L45.609 174.563C44.776 175.348 44.299 176.118 44.178 176.874C44.058 177.629 44.373 178.288 45.124 178.848ZM58.364 176.859L58.614 176.564L62.631 178.915L62.382 179.209L61.027 178.637L51.786 189.52L52.892 190.387L52.642 190.681L49.772 189.002L59.387 177.677L58.364 176.859ZM128.63 194.879C129.02 194.768 129.353 194.838 129.629 195.089C129.514 195.306 129.466 195.517 129.487 195.722C129.51 195.939 129.598 196.095 129.752 196.19C129.906 196.284 130.099 196.299 130.33 196.233C130.586 196.16 130.835 195.961 131.077 195.635C131.32 195.31 131.585 194.836 131.872 194.215L131.136 187.037L129.654 187.26L129.615 186.876L134.184 185.579L134.224 185.962L132.964 186.518L133.865 195.308L135.164 195.136L135.204 195.52L132.096 196.403L131.945 194.925C131.29 196.243 130.482 197.039 129.519 197.312C129.056 197.444 128.635 197.435 128.256 197.286C127.877 197.137 127.664 196.832 127.617 196.372C127.583 196.039 127.658 195.731 127.842 195.448C128.026 195.166 128.289 194.976 128.63 194.879ZM139.385 184.125C139.973 183.409 140.685 182.872 141.523 182.511C142.36 182.15 143.172 182.031 143.958 182.156C144.743 182.279 145.428 182.639 146.011 183.237C146.594 183.833 147.003 184.626 147.236 185.615C147.47 186.604 147.477 187.567 147.256 188.503C147.035 189.439 146.631 190.265 146.043 190.98C145.456 191.695 144.744 192.233 143.906 192.594C143.069 192.954 142.257 193.073 141.471 192.949C140.686 192.825 140.002 192.468 139.421 191.877C138.839 191.287 138.431 190.497 138.197 189.508C137.963 188.519 137.956 187.553 138.176 186.611C138.395 185.668 138.798 184.839 139.385 184.125ZM139.895 187.743L140.339 189.62C140.602 190.734 141.031 191.532 141.625 192.014C142.22 192.495 142.948 192.551 143.808 192.18C144.67 191.81 145.239 191.195 145.517 190.338C145.795 189.48 145.802 188.495 145.539 187.381L145.095 185.503C144.832 184.389 144.402 183.588 143.806 183.1C143.21 182.612 142.482 182.553 141.621 182.924C140.76 183.295 140.191 183.912 139.915 184.776C139.638 185.64 139.631 186.628 139.895 187.743ZM152.751 177.398L151.579 178.287L156.403 191.724L157.706 191.198L157.836 191.562L154.949 193.211L149.929 179.229L148.709 179.708L148.579 179.344L152.621 177.035L152.751 177.398ZM156.596 177.273C156.555 176.351 156.716 175.497 157.078 174.71C157.439 173.924 157.981 173.264 158.705 172.73C159.307 172.286 159.911 172.08 160.519 172.112C161.126 172.143 161.709 172.371 162.267 172.793L159.202 166.625L157.679 167.513L157.508 167.167L161.544 164.189L161.715 164.534L160.731 165.497L167.085 178.282L168.241 177.665L168.413 178.01L165.814 179.928L164.912 178.114C164.966 178.924 164.864 179.665 164.606 180.336C164.347 181.007 163.917 181.564 163.316 182.008C162.592 182.542 161.859 182.819 161.117 182.839C160.375 182.859 159.678 182.634 159.026 182.163C158.374 181.692 157.816 180.99 157.352 180.057C156.889 179.124 156.637 178.196 156.596 177.273ZM158.605 177.952L159.463 179.68C160.574 181.914 161.838 182.509 163.254 181.463C163.703 181.132 164.037 180.685 164.258 180.12C164.479 179.555 164.573 178.947 164.542 178.293C164.509 177.64 164.355 177.022 164.079 176.438L163.161 174.59C162.869 174.002 162.491 173.529 162.027 173.171C161.563 172.813 161.07 172.618 160.546 172.587C160.022 172.557 159.531 172.711 159.073 173.049C157.656 174.094 157.5 175.729 158.605 177.952ZM172.418 168.734L166.904 167.154L165.945 167.872L165.723 167.556L169.001 164.278L169.223 164.594L168.527 165.558L172.473 166.691L172.5 161.935L171.157 162.659L170.936 162.343L173.341 159.938L173.562 160.254L172.939 161.55L172.942 166.84L178.094 168.325L179.013 167.647L179.234 167.964L175.956 171.242L175.735 170.926L176.46 169.906L172.888 168.882L172.836 173.18L174.152 172.482L174.373 172.798L171.901 175.27L171.68 174.954L172.373 173.562L172.418 168.734ZM183.172 156.879L181.875 155.476C181.107 154.645 180.334 154.17 179.555 154.054C178.777 153.937 178.1 154.257 177.525 155.013C176.995 155.708 176.698 156.508 176.632 157.41C176.566 158.313 176.757 159.118 177.206 159.824L176.942 160.172C176.403 159.332 176.161 158.417 176.214 157.427C176.267 156.436 176.608 155.528 177.237 154.701C177.804 153.955 178.464 153.438 179.217 153.15C179.969 152.861 180.746 152.829 181.547 153.052C182.348 153.275 183.097 153.765 183.796 154.521C184.494 155.277 184.975 156.114 185.238 157.033C185.502 157.953 185.555 158.865 185.399 159.772C185.243 160.678 184.889 161.494 184.337 162.22C183.853 162.855 183.298 163.292 182.67 163.532C182.042 163.771 181.405 163.799 180.758 163.613C180.111 163.428 179.505 163.038 178.938 162.443L183.172 156.879ZM182.537 162.561C183.115 162.69 183.623 162.468 184.06 161.893C184.574 161.218 184.768 160.471 184.641 159.654C184.514 158.837 184.13 158.035 183.488 157.248L180.531 161.134C181.291 161.956 181.959 162.432 182.537 162.561ZM191.059 130.884C191.703 130.399 192.44 130.152 193.272 130.146C194.103 130.139 194.959 130.403 195.839 130.936C196.719 131.469 197.412 132.141 197.92 132.951C198.427 133.762 198.731 134.625 198.832 135.539C198.932 136.453 198.817 137.335 198.487 138.185C198.199 138.929 197.786 139.503 197.249 139.907C196.711 140.31 196.106 140.513 195.434 140.513C194.761 140.514 194.07 140.307 193.361 139.892L195.891 133.374L194.258 132.385C193.289 131.798 192.415 131.556 191.635 131.659C190.854 131.762 190.292 132.257 189.948 133.142C189.632 133.957 189.567 134.807 189.753 135.693C189.939 136.579 190.346 137.3 190.973 137.854L190.815 138.262C190.065 137.603 189.578 136.791 189.356 135.824C189.133 134.858 189.21 133.891 189.585 132.923C189.925 132.049 190.416 131.369 191.059 130.884ZM194.53 138.194C195.487 138.774 196.261 139.046 196.853 139.01C197.444 138.975 197.87 138.621 198.131 137.948C198.438 137.156 198.418 136.385 198.071 135.635C197.723 134.885 197.132 134.221 196.297 133.642L194.53 138.194ZM200.149 127.142C200.279 127.351 200.438 127.497 200.626 127.581C200.826 127.671 201.005 127.672 201.164 127.586C201.322 127.5 201.431 127.34 201.49 127.107C201.555 126.849 201.507 126.534 201.346 126.161C201.185 125.788 200.907 125.322 200.512 124.763L193.926 121.815L193.379 123.21L193.027 123.052L194.186 118.446L194.538 118.603L194.39 119.972L202.455 123.582L202.955 122.371L203.307 122.529L202.519 125.661L201.164 125.054C201.979 126.28 202.264 127.378 202.02 128.349C201.903 128.815 201.685 129.176 201.366 129.43C201.048 129.683 200.677 129.716 200.254 129.527C199.949 129.39 199.72 129.171 199.567 128.87C199.414 128.569 199.381 128.247 199.468 127.903C199.567 127.51 199.793 127.256 200.149 127.142ZM199.599 116.904C198.625 116.612 197.785 116.135 197.078 115.474C196.371 114.813 195.855 114.05 195.529 113.184C195.203 112.318 195.094 111.432 195.2 110.526C195.306 109.62 195.609 108.858 196.108 108.24C196.608 107.621 197.262 107.208 198.071 107.001C198.879 106.794 199.77 106.836 200.744 107.128C201.717 107.42 202.554 107.895 203.255 108.554C203.955 109.214 204.469 109.976 204.795 110.842C205.12 111.708 205.23 112.594 205.124 113.5C205.018 114.406 204.715 115.168 204.216 115.787C203.716 116.405 203.065 116.819 202.262 117.028C201.46 117.236 200.572 117.195 199.599 116.904ZM203.482 115.186C204.197 114.912 204.609 114.309 204.718 113.378C204.827 112.447 204.579 111.647 203.975 110.978C203.371 110.308 202.521 109.809 201.425 109.481L199.576 108.927C198.48 108.599 197.571 108.57 196.851 108.843C196.13 109.115 195.715 109.717 195.606 110.648C195.497 111.579 195.748 112.38 196.358 113.051C196.968 113.722 197.821 114.222 198.918 114.551L200.766 115.104C201.862 115.433 202.768 115.46 203.482 115.186Z" fill="#FF0000"/>
</g>
<defs>
<clipPath id="clip0_4_16">
<rect width="212" height="200" fill="white"/>
</clipPath>
</defs>
</svg>
