<svg width="319" height="319" viewBox="0 0 319 319" fill="none" xmlns="http://www.w3.org/2000/svg">
    <g clip-path="url(#z9by1il2ra)">
        <path d="M79.826 81.044c20.94-21.36 48.954-33.294 78.865-33.589 28.757-.28 56.195 10.317 77.233 29.853a90.42 90.42 0 0 1 2.279 2.174 112.658 112.658 0 0 1 16.013 19.653c11.288 17.597 17.375 38.076 17.576 59.212.294 29.924-11.076 58.158-32.018 79.517-20.947 21.368-48.961 33.287-78.869 33.583-28.758.28-56.188-10.309-77.233-29.838a123.017 123.017 0 0 1-2.284-2.179c-21.36-20.94-33.28-48.954-33.584-78.869-.294-29.91 11.082-58.151 32.025-79.51l-.003-.007z" fill="#FFEB33"/>
        <path d="M182.203 173.838c-6.199-6.077-21.397-.626-33.945 12.175-12.549 12.801-17.697 28.105-11.498 34.181 6.199 6.077 21.396.626 33.945-12.175s17.697-28.104 11.498-34.181zM145.147 137.478c-6.198-6.078-21.396-.629-33.947 12.17-12.552 12.799-17.702 28.101-11.504 34.179 6.198 6.078 21.396.629 33.947-12.17 12.552-12.799 17.702-28.101 11.504-34.179z" fill="#252525"/>
        <path d="M56.833 160.179c.277 27.504 11.237 53.256 30.874 72.507.686.673 1.397 1.348 2.1 2.003 19.35 17.952 44.566 27.689 71.004 27.432 27.497-.271 53.25-11.231 72.507-30.875 19.251-19.638 29.707-45.594 29.435-73.103-.187-19.434-5.785-38.258-16.158-54.435a103.6 103.6 0 0 0-14.721-18.068 80.915 80.915 0 0 0-2.096-1.999c-19.343-17.958-44.565-27.702-71.003-27.445-27.498.27-53.25 11.244-72.503 30.88-19.251 19.637-29.714 45.6-29.442 73.096l.003.007zm169.089-72.33c.662.614 1.324 1.24 1.961 1.865a98.59 98.59 0 0 1 13.902 17.067c9.799 15.287 15.076 33.061 15.263 51.421.252 25.977-9.624 50.5-27.811 69.047-36.527 37.257-97.342 38.706-135.567 3.23a100.81 100.81 0 0 1-1.968-1.871 97.712 97.712 0 0 1-13.776-16.929c-24.26-37.803-19.029-88.518 12.426-120.602 36.526-37.26 97.345-38.704 135.568-3.225l.002-.003z" fill="#252525"/>
        <path d="M212.924 100.179a76.974 76.974 0 0 1 12.039 14.243 76.22 76.22 0 0 1 8.786 18.384 77.136 77.136 0 0 1 1.994 39.841 76.29 76.29 0 0 1-9.427 23.648 3.106 3.106 0 1 1-5.303-3.232 73.478 73.478 0 0 0 2.284-4.043 70.146 70.146 0 0 0 6.378-17.683 70.96 70.96 0 0 0 1.497-18.37 70.69 70.69 0 0 0-3.328-18.257 70.097 70.097 0 0 0-8.069-16.889 70.99 70.99 0 0 0-12.871-14.709 70.489 70.489 0 0 0-16.144-10.525 70.257 70.257 0 0 0-17.811-5.635 70.935 70.935 0 0 0-18.461-.784 70.813 70.813 0 0 0-18.08 4.03 70.142 70.142 0 0 0-16.718 8.838 3.104 3.104 0 1 1-3.614-5.048 76.32 76.32 0 0 1 18.202-9.623 77.035 77.035 0 0 1 39.744-3.533 76.441 76.441 0 0 1 19.385 6.131 76.711 76.711 0 0 1 19.528 13.21l-.011.006z" fill="#252525"/>
    </g>
    <defs>
        <clipPath id="z9by1il2ra">
            <path fill="#fff" transform="rotate(-135 145.811 126.035)" d="M0 0h225v225H0z"/>
        </clipPath>
    </defs>
</svg>
